ffmpeg started on 2016-11-27 at 19:47:34
Report written to "Output/NVENCh264/results/ffmpeg/sintelllhp2000k.log"
Command line:
Tools/ffmpeg/ffmpeg -benchmark -y -i Input/y4m/sintel.y4m -c:v h264_nvenc -preset llhp -b:v 2000k -an Output/NVENCh264/encoded/sintelllhp2000k.mkv
ffmpeg version N-82227-gdb23fde Copyright (c) 2000-2016 the FFmpeg developers
  built with gcc 5.4.0 (Ubuntu 5.4.0-6ubuntu1~16.04.2) 20160609
  configuration: --prefix=/home/jaroslav/ffmpeg_build --pkg-config-flags=--static --extra-cflags=-I/home/jaroslav/ffmpeg_build/include --extra-ldflags=-L/home/jaroslav/ffmpeg_build/lib --bindir=/home/jaroslav/bin --enable-gpl --enable-libass --enable-libfdk-aac --enable-libfreetype --enable-libmp3lame --enable-libopus --enable-libtheora --enable-libvorbis --enable-libvpx --enable-libx264 --enable-libx265 --enable-nvenc --enable-libmfx --enable-libxvid --enable-libgsm --enable-libopencore-amrnb --enable-version3 --enable-nonfree
  libavutil      55. 35.100 / 55. 35.100
  libavcodec     57. 66.101 / 57. 66.101
  libavformat    57. 57.100 / 57. 57.100
  libavdevice    57.  2.100 / 57.  2.100
  libavfilter     6. 66.100 /  6. 66.100
  libswscale      4.  3.100 /  4.  3.100
  libswresample   2.  4.100 /  2.  4.100
  libpostproc    54.  2.100 / 54.  2.100
Input #0, yuv4mpegpipe, from 'Input/y4m/sintel.y4m':
  Duration: 00:00:20.83, start: 0.000000, bitrate: 2057307 kb/s
    Stream #0:0: Video: rawvideo (I420 / 0x30323449), yuv420p(progressive), 4096x1744, SAR 1:1 DAR 256:109, 24 fps, 24 tbr, 24 tbn, 24 tbc
[h264_nvenc @ 0x32ff1c0] The variable bitrate rate-control requires the 'qmin' and/or 'qmax' option set.
Output #0, matroska, to 'Output/NVENCh264/encoded/sintelllhp2000k.mkv':
  Metadata:
    encoder         : Lavf57.57.100
    Stream #0:0: Video: h264 (h264_nvenc) (Main) (H264 / 0x34363248), yuv420p, 4096x1744 [SAR 1:1 DAR 256:109], q=-1--1, 2000 kb/s, 24 fps, 1k tbn, 24 tbc
    Metadata:
      encoder         : Lavc57.66.101 h264_nvenc
    Side data:
      cpb: bitrate max/min/avg: 0/0/2000000 buffer size: 4000000 vbv_delay: -1
Stream mapping:
  Stream #0:0 -> #0:0 (rawvideo (native) -> h264 (h264_nvenc))
Press [q] to stop, [?] for help
frame=    3 fps=1.3 q=0.0 size=       0kB time=00:00:00.00 bitrate=N/A speed=   0x    frame=   24 fps=8.5 q=0.0 size=       0kB time=00:00:00.00 bitrate=N/A speed=   0x    frame=   45 fps= 13 q=49.0 size=       1kB time=00:00:00.58 bitrate=  10.2kbits/s speed=0.174x    frame=   66 fps= 17 q=49.0 size=       1kB time=00:00:01.45 bitrate=   4.1kbits/s speed=0.378x    frame=   87 fps= 20 q=49.0 size=       1kB time=00:00:02.33 bitrate=   2.6kbits/s speed=0.534x    frame=  108 fps= 22 q=49.0 size=       1kB time=00:00:03.20 bitrate=   1.9kbits/s speed=0.658x    frame=  129 fps= 24 q=49.0 size=       1kB time=00:00:04.08 bitrate=   1.5kbits/s speed=0.756x    frame=  150 fps= 25 q=49.0 size=    1374kB time=00:00:04.95 bitrate=2269.3kbits/s speed=0.838x    frame=  171 fps= 27 q=49.0 size=    1374kB time=00:00:05.83 bitrate=1928.9kbits/s speed=0.908x    frame=  192 fps= 28 q=49.0 size=    1374kB time=00:00:06.70 bitrate=1677.3kbits/s speed=0.967x    frame=  197 fps= 19 q=49.0 size=    1374kB time=00:00:06.91 bitrate=1626.7kbits/s speed=0.656x    frame=  198 fps= 18 q=49.0 size=    1374kB time=00:00:06.95 bitrate=1617.1kbits/s speed=0.625x    frame=  219 fps= 19 q=49.0 size=    1374kB time=00:00:07.83 bitrate=1436.5kbits/s speed=0.673x    frame=  240 fps= 20 q=49.0 size=    1374kB time=00:00:08.70 bitrate=1292.1kbits/s speed=0.717x    frame=  261 fps= 21 q=49.0 size=    1374kB time=00:00:09.58 bitrate=1174.2kbits/s speed=0.757x    frame=  282 fps= 21 q=49.0 size=    2661kB time=00:00:10.45 bitrate=2084.4kbits/s speed=0.794x    frame=  303 fps= 22 q=49.0 size=    2879kB time=00:00:11.33 bitrate=2080.6kbits/s speed=0.828x    frame=  324 fps= 23 q=49.0 size=    2879kB time=00:00:12.20 bitrate=1931.5kbits/s speed=0.86x    frame=  345 fps= 23 q=46.0 size=    2879kB time=00:00:13.08 bitrate=1802.3kbits/s speed=0.89x    frame=  366 fps= 24 q=40.0 size=    2879kB time=00:00:13.95 bitrate=1689.3kbits/s speed=0.917x    frame=  387 fps= 25 q=40.0 size=    2879kB time=00:00:14.83 bitrate=1589.7kbits/s speed=0.943x    frame=  408 fps= 25 q=44.0 size=    2879kB time=00:00:15.70 bitrate=1501.1kbits/s speed=0.967x    frame=  429 fps= 26 q=45.0 size=    3883kB time=00:00:16.58 bitrate=1918.2kbits/s speed=0.99x    frame=  450 fps= 26 q=49.0 size=    4216kB time=00:00:17.45 bitrate=1978.0kbits/s speed=1.01x    frame=  471 fps= 26 q=44.0 size=    4216kB time=00:00:18.33 bitrate=1883.6kbits/s speed=1.03x    frame=  492 fps= 27 q=45.0 size=    4216kB time=00:00:19.20 bitrate=1797.8kbits/s speed=1.05x    frame=  500 fps= 27 q=40.0 Lsize=    5042kB time=00:00:20.79 bitrate=1986.6kbits/s speed=1.12x    
video:5038kB audio:0kB subtitle:0kB other streams:0kB global headers:0kB muxing overhead: 0.087307%
bench: utime=0.916s
bench: maxrss=1187596kB
